<?xml version="1.0" encoding="UTF-8" standalone="no"?><!DOCTYPE svg PUBLIC "-//W3C//DTD SVG 1.1//EN" "http://www.w3.org/Graphics/SVG/1.1/DTD/svg11.dtd"><svg width="100%" height="100%" viewBox="0 0 3031 2720" version="1.1" xmlns="http://www.w3.org/2000/svg" xmlns:xlink="http://www.w3.org/1999/xlink" xml:space="preserve" xmlns:serif="http://www.serif.com/" style="fill-rule:evenodd;clip-rule:evenodd;stroke-linejoin:round;stroke-miterlimit:2;"><rect x="211.71" y="162.592" width="2818.59" height="2556.87" style="fill:#ea0;"/><rect x="0" y="0" width="2870.88" height="2585.34" style="fill-opacity:0;"/><path d="M2870.88,0l-2870.88,0l0,2585.34l2870.88,-0l-0,-2585.34Zm-41,41l-0,2503.34c-0,-0 -2441.23,-0 -2788.88,-0c0,-0 0,-2176.06 0,-2503.34c323.835,0 2465.05,0 2788.88,0l-0,0Z"/><g transform="matrix(2.65962,0,0,2.65962,-1540.52,-250.133)"><text x="656.003px" y="408.443px" style="font-family:'HiraMaruPro-W4', 'Hiragino Maru Gothic Pro', sans-serif;font-size:299.055px;">B</text><text x="892.257px" y="408.443px" style="font-family:'HiraMaruPro-W4', 'Hiragino Maru Gothic Pro', sans-serif;font-size:299.055px;">E</text><text x="1103.39px" y="408.443px" style="font-family:'HiraMaruPro-W4', 'Hiragino Maru Gothic Pro', sans-serif;font-size:299.055px;">A<tspan x="1349.81px " y="408.443px ">N</tspan></text></g><text x="264.936px" y="1936px" style="font-family:'HiraMaruPro-W4', 'Hiragino Maru Gothic Pro', sans-serif;font-size:628.933px;">S<tspan x="727.202px 1234.12px 1681.29px 2211.48px " y="1936px 1936px 1936px 1936px ">CENE</tspan></text></svg>